<?xml version="1.0" encoding="UTF-8" standalone="no"?><!-- Generator: Gravit.io --><svg xmlns="http://www.w3.org/2000/svg" xmlns:xlink="http://www.w3.org/1999/xlink" style="isolation:isolate" viewBox="0 0 492.441 492.441" width="492.441pt" height="492.441pt"><defs><clipPath id="_clipPath_y7maTYCBhPrum7dRehWIIaokmHH13Q7A"><rect width="492.441" height="492.441"/></clipPath></defs><g clip-path="url(#_clipPath_y7maTYCBhPrum7dRehWIIaokmHH13Q7A)"><g><path d=" M 76.416 324.566 L 48.497 366.251 C 72.254 385.83 102.172 396.538 131.8 390.677 C 136.186 389.805 140.397 388.507 144.508 386.991 C 133.331 377.492 124.268 365.622 117.381 352.01 L 76.416 324.566 L 76.416 324.566 Z " fill="rgb(237,216,3)"/><path d=" M 88.607 172.301 L 121.251 123.547 L 167.023 154.189 C 139.573 116.861 104.543 87.58 73.059 93.806 C 41.595 100.022 20.336 140.44 9.177 185.414 L 39.835 139.65 L 88.607 172.301 L 88.607 172.301 Z " fill="rgb(254,167,6)"/><path d=" M 107.43 325.469 C 105.833 319.284 104.462 312.954 103.64 306.318 C 102.236 294.979 102.221 283.543 103.268 272.27 L 60.385 243.562 L 27.725 292.318 L 0.612 274.15 C 1.08 280.472 1.725 286.504 2.774 291.81 C 6.209 309.116 13.935 325.841 24.515 340.566 L 39.223 350.42 L 71.882 301.655 L 107.43 325.469 L 107.43 325.469 Z " fill="rgb(254,167,6)"/><path d=" M 55.867 220.646 L 104.624 253.305 L 106.93 249.87 C 110.832 233.612 117.203 218.177 125.992 204.646 C 133.331 193.348 144.346 180.598 157.733 167.842 L 125.783 146.456 L 93.124 195.211 L 44.368 162.552 L 11.709 211.315 L 4.629 206.565 C 1.807 222.789 0.274 238.982 0 253.878 L 23.209 269.409 L 55.867 220.646 L 55.867 220.646 Z " fill="rgb(237,216,3)"/><path d=" M 391.963 150.826 C 409.93 150.826 426.509 149.164 441.397 146.367 C 426.8 128.36 409.947 116.352 391.963 116.352 C 382.981 116.352 374.27 119.359 365.981 124.61 C 370.642 132.198 374.141 140.803 376.657 150.124 C 381.722 150.406 386.656 150.826 391.963 150.826 Z " fill="rgb(234,47,131)"/><path d=" M 492.344 283.811 C 466.281 295.907 431.187 303.278 391.963 303.278 C 381.495 303.278 371.399 302.68 361.625 301.681 C 355.754 317.841 349.239 331.872 342.755 342.348 C 357.593 345.138 374.06 346.832 391.963 346.832 C 429.493 346.832 461.087 339.775 483.199 329.64 C 489.07 315.422 492.441 300.263 492.441 285.312 C 492.441 284.843 492.36 284.287 492.344 283.811 Z " fill="rgb(66,218,67)"/><path d=" M 380.673 172.284 C 382.172 186.114 382.124 200.783 380.85 215.701 C 384.561 215.846 388.109 216.162 391.963 216.162 C 424.348 216.162 452.023 210.742 473.345 202.799 C 468.055 189.808 461.911 177.156 454.91 165.688 C 435.911 170.083 414.687 172.6 391.963 172.6 C 388.141 172.599 384.415 172.429 380.673 172.284 Z " fill="rgb(66,218,67)"/><path d=" M 328.338 361.387 C 326.869 363.023 325.256 364.54 323.708 366.114 C 341.625 386.064 365.561 399.475 391.963 399.475 C 421.558 399.475 448.088 382.702 466.475 358.702 C 444.75 364.976 419.397 368.613 391.963 368.613 C 368.963 368.612 347.545 365.927 328.338 361.387 Z " fill="rgb(234,47,131)"/><path d=" M 378.236 237.385 C 375.898 252.183 372.511 266.706 368.529 280.447 C 376.059 281.076 383.817 281.504 391.963 281.504 C 433.766 281.504 467.926 272.626 490.103 260.611 C 488.151 248.918 485.006 236.193 480.844 223.281 C 456.298 232.475 425.703 237.942 391.963 237.942 C 387.269 237.942 382.802 237.595 378.236 237.385 Z " fill="rgb(234,47,131)"/><path d=" M 364.674 180.244 C 360.012 187.058 352.174 191.534 343.32 191.534 C 329.046 191.534 317.482 179.962 317.482 165.687 C 317.482 151.406 329.046 139.843 343.32 139.843 C 348.384 139.843 353.077 141.359 357.077 143.883 C 352.431 132.327 345.707 122.884 336.321 116.788 C 327.658 111.151 317.322 108.659 305.999 108.659 C 249.535 108.659 167.91 170.479 139.848 213.645 C 106.14 265.49 112.543 347.63 164.377 381.323 C 173.829 387.475 184.216 391.363 194.974 393.66 C 192.135 389.508 190.457 384.499 190.457 379.088 C 190.457 364.822 202.037 353.25 216.311 353.25 C 230.584 353.25 242.148 364.822 242.148 379.088 C 242.148 384.685 240.326 389.83 237.308 394.056 C 273.114 387.749 307.853 365.969 327.563 335.663 C 349.578 301.777 368.529 233.176 364.674 180.244 Z  M 164.62 315.326 C 150.347 315.326 138.765 303.762 138.765 289.472 C 138.765 275.199 150.346 263.627 164.62 263.627 C 178.892 263.627 190.457 275.199 190.457 289.472 C 190.457 303.762 178.893 315.326 164.62 315.326 Z  M 216.311 216.766 C 202.037 216.766 190.457 205.194 190.457 190.913 C 190.457 176.647 202.037 165.075 216.311 165.075 C 230.584 165.075 242.148 176.647 242.148 190.913 C 242.148 205.194 230.584 216.766 216.311 216.766 Z  M 291.598 309.656 C 277.325 309.656 265.76 298.084 265.76 283.811 C 265.76 269.537 277.324 257.965 291.598 257.965 C 305.87 257.965 317.435 269.537 317.435 283.811 C 317.435 298.084 305.87 309.656 291.598 309.656 Z " fill="rgb(5,151,213)"/></g></g></svg>